# xmcd
#
# Track frame offsets:
# 150
# 12108
# 25513
# 45600
# 54068
# 78483
# 93745
# 109250
# 127443
# 138455
#
# Disc length: 2066 seconds
#
#
# Revision: 0
# Processed by: cddbd v1.5.2PL0 Copyright (c) Steve Scherf et al.
# Submitted via: FreeRIP 2.951 
#
DISCID=7f08100a
DTITLE=Let The Church Rise Up
DYEAR=1900
DGENRE=Southern Gospel
TTITLE0=Let the Church Rise Up
TTITLE1=Get Up Move Out
TTITLE2=He Told Me To Rise
TTITLE3=He's Making a Way
TTITLE4=Mama Taught Me So Well
TTITLE5=He's Still There
TTITLE6=Nothin' But Good
TTITLE7=You Can't Put A Price On The Blood
TTITLE8=He Is Still Real To My Soul
TTITLE9=Even So Lord Jesus Come
EXTD=
EXTT0=
EXTT1=
EXTT2=
EXTT3=
EXTT4=
EXTT5=
EXTT6=
EXTT7=
EXTT8=
EXTT9=
PLAYORDER=
